<svg width="89" height="48" viewBox="0 0 89 48" fill="none" xmlns="http://www.w3.org/2000/svg">
<path d="M4.40114 20.267C3.48958 20.267 2.83124 20.1252 2.4261 19.8416C2.04122 19.5378 1.84878 18.9604 1.84878 18.1096V0.273468C2.05135 0.212697 2.33494 0.151926 2.69957 0.0911566C3.08445 0.0303855 3.49971 0 3.94536 0C4.83667 0 5.48489 0.151926 5.89002 0.455779C6.29516 0.759632 6.49773 1.33695 6.49773 2.18774V20.0239C6.27491 20.0847 5.98118 20.1353 5.61656 20.1758C5.25193 20.2366 4.8468 20.267 4.40114 20.267Z" fill="#061135"/>
<path d="M28.5071 10.8172C28.5071 12.3972 28.2641 13.7949 27.7779 15.0103C27.312 16.2258 26.6536 17.2487 25.8028 18.0793C24.9521 18.8895 23.9493 19.5074 22.7947 19.9328C21.6401 20.3582 20.3841 20.5709 19.0269 20.5709C17.6697 20.5709 16.4138 20.3582 15.2591 19.9328C14.1045 19.5074 13.1018 18.8895 12.251 18.0793C11.4205 17.2487 10.7621 16.2258 10.276 15.0103C9.81005 13.7949 9.57709 12.3972 9.57709 10.8172C9.57709 9.23713 9.82017 7.84954 10.3063 6.65438C10.7925 5.43897 11.461 4.42613 12.3118 3.61585C13.1626 2.78532 14.1551 2.15736 15.2895 1.73196C16.4442 1.30657 17.69 1.09387 19.0269 1.09387C20.3639 1.09387 21.6097 1.30657 22.7643 1.73196C23.919 2.15736 24.9217 2.78532 25.7725 3.61585C26.6233 4.42613 27.2917 5.43897 27.7779 6.65438C28.2641 7.84954 28.5071 9.23713 28.5071 10.8172ZM23.5847 10.8172C23.5847 8.87251 23.1695 7.41402 22.3389 6.44169C21.5286 5.4491 20.4247 4.95281 19.0269 4.95281C17.6495 4.95281 16.5455 5.4491 15.7149 6.44169C14.8844 7.41402 14.4691 8.87251 14.4691 10.8172C14.4691 12.7821 14.8743 14.2608 15.6845 15.2534C16.5151 16.2258 17.6292 16.7119 19.0269 16.7119C20.4247 16.7119 21.5286 16.2258 22.3389 15.2534C23.1695 14.2608 23.5847 12.7821 23.5847 10.8172Z" fill="#061135"/>
<path d="M49.7828 10.8172C49.7828 12.3972 49.5397 13.7949 49.0536 15.0103C48.5876 16.2258 47.9293 17.2487 47.0785 18.0793C46.2277 18.8895 45.225 19.5074 44.0704 19.9328C42.9157 20.3582 41.6598 20.5709 40.3026 20.5709C38.9454 20.5709 37.6894 20.3582 36.5348 19.9328C35.3802 19.5074 34.3774 18.8895 33.5267 18.0793C32.6961 17.2487 32.0378 16.2258 31.5516 15.0103C31.0857 13.7949 30.8527 12.3972 30.8527 10.8172C30.8527 9.23713 31.0958 7.84954 31.582 6.65438C32.0682 5.43897 32.7366 4.42613 33.5874 3.61585C34.4382 2.78532 35.4308 2.15736 36.5652 1.73196C37.7198 1.30657 38.9656 1.09387 40.3026 1.09387C41.6395 1.09387 42.8853 1.30657 44.04 1.73196C45.1946 2.15736 46.1973 2.78532 47.0481 3.61585C47.8989 4.42613 48.5674 5.43897 49.0536 6.65438C49.5397 7.84954 49.7828 9.23713 49.7828 10.8172ZM44.8604 10.8172C44.8604 8.87251 44.4451 7.41402 43.6146 6.44169C42.8043 5.4491 41.7003 4.95281 40.3026 4.95281C38.9251 4.95281 37.8211 5.4491 36.9906 6.44169C36.16 7.41402 35.7448 8.87251 35.7448 10.8172C35.7448 12.7821 36.1499 14.2608 36.9602 15.2534C37.7907 16.2258 38.9049 16.7119 40.3026 16.7119C41.7003 16.7119 42.8043 16.2258 43.6146 15.2534C44.4451 14.2608 44.8604 12.7821 44.8604 10.8172Z" fill="#061135"/>
<path d="M61.0448 5.46936V20.0239C60.822 20.0847 60.508 20.1353 60.1029 20.1758C59.6977 20.2366 59.2724 20.267 58.8267 20.267C57.8746 20.267 57.2061 20.1049 56.8213 19.7808C56.4364 19.4567 56.2439 18.8693 56.2439 18.0185V5.46936H51.4735C51.3519 5.26679 51.2304 5.00345 51.1088 4.67934C51.0075 4.35523 50.9569 4.00073 50.9569 3.61585C50.9569 2.92712 51.1088 2.43082 51.4127 2.12697C51.7165 1.80286 52.1318 1.64081 52.6585 1.64081H65.9369C66.0787 1.84338 66.2002 2.10672 66.3015 2.43082C66.4028 2.75494 66.4534 3.10943 66.4534 3.49431C66.4534 4.16279 66.3015 4.65908 65.9976 4.98319C65.6938 5.3073 65.2785 5.46936 64.7518 5.46936H61.0448Z" fill="#061135"/>
<path d="M81.154 10.8476C81.154 8.88264 80.6678 7.42415 79.6955 6.47207C78.7434 5.49974 77.4976 5.01358 75.9581 5.01358C75.5935 5.01358 75.2491 5.02371 74.925 5.04396C74.6009 5.06422 74.2768 5.10473 73.9527 5.1655V16.4688C74.216 16.5296 74.53 16.5803 74.8946 16.6208C75.2795 16.641 75.6441 16.6512 75.9885 16.6512C77.5685 16.6512 78.8244 16.1751 79.7562 15.223C80.6881 14.2507 81.154 12.7922 81.154 10.8476ZM86.0764 10.7868C86.0764 12.4073 85.8333 13.8253 85.3471 15.0407C84.861 16.2561 84.1722 17.269 83.2809 18.0793C82.4099 18.8895 81.3464 19.4972 80.0905 19.9024C78.8548 20.3075 77.4773 20.5101 75.9581 20.5101C75.6137 20.5101 75.2187 20.5 74.7731 20.4797C74.3477 20.4594 73.902 20.4189 73.4361 20.3582C72.9905 20.3176 72.5347 20.2467 72.0688 20.1455C71.6029 20.0644 71.1775 19.953 70.7926 19.8112C69.7392 19.4263 69.2125 18.7376 69.2125 17.745V3.28161C69.2125 2.87648 69.3138 2.56249 69.5164 2.33967C69.7392 2.11684 70.0532 1.93453 70.4583 1.79273C71.2889 1.52939 72.17 1.35721 73.1019 1.27618C74.0337 1.19516 74.8845 1.15464 75.6542 1.15464C77.214 1.15464 78.632 1.34708 79.9082 1.73196C81.1844 2.11684 82.2782 2.71442 83.1898 3.5247C84.1013 4.31471 84.8103 5.31743 85.3168 6.53284C85.8232 7.728 86.0764 9.14598 86.0764 10.7868Z" fill="#061135"/>
<path d="M0.965578 29.575H1.61515V35.1578H5.05612V35.7196H0.965578V29.575Z" fill="#061135"/>
<path d="M7.82166 35.7635C7.37691 35.7635 6.97605 35.664 6.61908 35.465C6.26211 35.2602 5.98121 34.9793 5.77639 34.6224C5.57157 34.2654 5.46916 33.8616 5.46916 33.411C5.46916 32.9604 5.57157 32.5566 5.77639 32.1996C5.98121 31.8427 6.26211 31.5647 6.61908 31.3657C6.97605 31.1668 7.37691 31.0673 7.82166 31.0673C8.26641 31.0673 8.66727 31.1668 9.02424 31.3657C9.38121 31.5647 9.65918 31.8427 9.85815 32.1996C10.063 32.5566 10.1654 32.9604 10.1654 33.411C10.1654 33.8616 10.063 34.2654 9.85815 34.6224C9.65918 34.9793 9.38121 35.2602 9.02424 35.465C8.66727 35.664 8.26641 35.7635 7.82166 35.7635ZM7.82166 35.2105C8.14937 35.2105 8.44197 35.1373 8.69946 34.991C8.9628 34.8389 9.16762 34.6253 9.31392 34.3502C9.46022 34.0752 9.53337 33.7621 9.53337 33.411C9.53337 33.0599 9.46022 32.7468 9.31392 32.4718C9.16762 32.1967 8.9628 31.986 8.69946 31.8397C8.44197 31.6876 8.14937 31.6115 7.82166 31.6115C7.49395 31.6115 7.19842 31.6876 6.93508 31.8397C6.6776 31.986 6.47278 32.1967 6.32063 32.4718C6.17433 32.7468 6.10118 33.0599 6.10118 33.411C6.10118 33.7621 6.17433 34.0752 6.32063 34.3502C6.47278 34.6253 6.6776 34.8389 6.93508 34.991C7.19842 35.1373 7.49395 35.2105 7.82166 35.2105Z" fill="#061135"/>
<path d="M13.3514 35.7635C12.8949 35.7635 12.4853 35.664 12.1225 35.465C11.7655 35.2661 11.4846 34.9881 11.2798 34.6311C11.075 34.2683 10.9725 33.8616 10.9725 33.411C10.9725 32.9604 11.075 32.5566 11.2798 32.1996C11.4846 31.8427 11.7655 31.5647 12.1225 31.3657C12.4853 31.1668 12.8949 31.0673 13.3514 31.0673C13.7493 31.0673 14.1034 31.1463 14.4135 31.3043C14.7295 31.4564 14.9782 31.6817 15.1596 31.9802L14.6944 32.2962C14.5423 32.068 14.3491 31.8983 14.1151 31.7871C13.881 31.67 13.6264 31.6115 13.3514 31.6115C13.0178 31.6115 12.7164 31.6876 12.4472 31.8397C12.1839 31.986 11.9762 32.1967 11.824 32.4718C11.6777 32.7468 11.6046 33.0599 11.6046 33.411C11.6046 33.768 11.6777 34.084 11.824 34.359C11.9762 34.6282 12.1839 34.8389 12.4472 34.991C12.7164 35.1373 13.0178 35.2105 13.3514 35.2105C13.6264 35.2105 13.881 35.1549 14.1151 35.0437C14.3491 34.9325 14.5423 34.7628 14.6944 34.5346L15.1596 34.8506C14.9782 35.149 14.7295 35.3773 14.4135 35.5353C14.0975 35.6874 13.7435 35.7635 13.3514 35.7635Z" fill="#061135"/>
<path d="M17.9991 31.0673C18.6019 31.0673 19.0642 31.2194 19.386 31.5237C19.7079 31.8222 19.8688 32.2669 19.8688 32.858V35.7196H19.2719V34.9998C19.1315 35.2397 18.9237 35.427 18.6487 35.5616C18.3795 35.6962 18.0576 35.7635 17.6831 35.7635C17.1681 35.7635 16.7585 35.6406 16.4542 35.3948C16.1499 35.149 15.9977 34.8242 15.9977 34.4205C15.9977 34.0284 16.1382 33.7124 16.4191 33.4724C16.7058 33.2325 17.1594 33.1125 17.7797 33.1125H19.2456V32.8316C19.2456 32.4337 19.1344 32.1323 18.912 31.9275C18.6896 31.7168 18.3649 31.6115 17.9377 31.6115C17.6451 31.6115 17.3642 31.6613 17.095 31.7607C16.8258 31.8544 16.5946 31.986 16.4015 32.1557L16.1206 31.6905C16.3547 31.4915 16.6356 31.3394 16.9633 31.2341C17.291 31.1229 17.6363 31.0673 17.9991 31.0673ZM17.7797 35.2719C18.1308 35.2719 18.4322 35.1929 18.6838 35.0349C18.9354 34.8711 19.1227 34.637 19.2456 34.3327V33.5778H17.7972C17.0072 33.5778 16.6122 33.8528 16.6122 34.4029C16.6122 34.6721 16.7146 34.8857 16.9194 35.0437C17.1242 35.1959 17.411 35.2719 17.7797 35.2719Z" fill="#061135"/>
<path d="M21.5616 29.2063H22.1848V35.7196H21.5616V29.2063Z" fill="#061135"/>
<path d="M28.6478 29.575C29.432 29.575 30.0465 29.7623 30.4912 30.1368C30.936 30.5113 31.1583 31.0263 31.1583 31.6817C31.1583 32.3372 30.936 32.8521 30.4912 33.2267C30.0465 33.5953 29.432 33.7797 28.6478 33.7797H26.9976V35.7196H26.348V29.575H28.6478ZM28.6303 33.2091C29.2389 33.2091 29.7041 33.0774 30.026 32.8141C30.3478 32.5449 30.5088 32.1674 30.5088 31.6817C30.5088 31.1843 30.3478 30.8039 30.026 30.5406C29.7041 30.2714 29.2389 30.1368 28.6303 30.1368H26.9976V33.2091H28.6303Z" fill="#061135"/>
<path d="M32.9081 32.0065C33.0544 31.6964 33.2709 31.4623 33.5577 31.3043C33.8503 31.1463 34.2102 31.0673 34.6374 31.0673V31.673L34.4881 31.6642C34.0024 31.6642 33.622 31.8134 33.347 32.1119C33.072 32.4103 32.9344 32.8287 32.9344 33.3671V35.7196H32.3112V31.1024H32.9081V32.0065Z" fill="#061135"/>
<path d="M35.7658 31.1024H36.389V35.7196H35.7658V31.1024ZM36.0818 30.0929C35.9531 30.0929 35.8448 30.049 35.757 29.9612C35.6693 29.8735 35.6254 29.7681 35.6254 29.6452C35.6254 29.5282 35.6693 29.4258 35.757 29.338C35.8448 29.2502 35.9531 29.2063 36.0818 29.2063C36.2106 29.2063 36.3188 29.2502 36.4066 29.338C36.4944 29.4199 36.5383 29.5194 36.5383 29.6365C36.5383 29.7652 36.4944 29.8735 36.4066 29.9612C36.3188 30.049 36.2106 30.0929 36.0818 30.0929Z" fill="#061135"/>
<path d="M42.3366 29.2063V35.7196H41.7397V34.8067C41.5524 35.1168 41.3037 35.3539 40.9936 35.5177C40.6893 35.6816 40.344 35.7635 39.9578 35.7635C39.5247 35.7635 39.1326 35.664 38.7815 35.465C38.4304 35.2661 38.1554 34.9881 37.9564 34.6311C37.7574 34.2742 37.6579 33.8675 37.6579 33.411C37.6579 32.9545 37.7574 32.5478 37.9564 32.1909C38.1554 31.8339 38.4304 31.5588 38.7815 31.3657C39.1326 31.1668 39.5247 31.0673 39.9578 31.0673C40.3323 31.0673 40.6688 31.1463 40.9672 31.3043C41.2715 31.4564 41.5203 31.6817 41.7134 31.9802V29.2063H42.3366ZM40.0104 35.2105C40.3323 35.2105 40.622 35.1373 40.8795 34.991C41.1428 34.8389 41.3476 34.6253 41.4939 34.3502C41.6461 34.0752 41.7221 33.7621 41.7221 33.411C41.7221 33.0599 41.6461 32.7468 41.4939 32.4718C41.3476 32.1967 41.1428 31.986 40.8795 31.8397C40.622 31.6876 40.3323 31.6115 40.0104 31.6115C39.6827 31.6115 39.3872 31.6876 39.1239 31.8397C38.8664 31.986 38.6616 32.1967 38.5094 32.4718C38.3631 32.7468 38.29 33.0599 38.29 33.411C38.29 33.7621 38.3631 34.0752 38.5094 34.3502C38.6616 34.6253 38.8664 34.8389 39.1239 34.991C39.3872 35.1373 39.6827 35.2105 40.0104 35.2105Z" fill="#061135"/>
<path d="M48.0926 33.6041H44.2303C44.2654 34.084 44.4498 34.4731 44.7833 34.7716C45.1169 35.0642 45.5382 35.2105 46.0474 35.2105C46.3341 35.2105 46.5974 35.1607 46.8374 35.0613C47.0773 34.9559 47.2851 34.8038 47.4606 34.6048L47.8117 35.0086C47.6069 35.2544 47.3494 35.4416 47.0393 35.5704C46.735 35.6991 46.3985 35.7635 46.0298 35.7635C45.5558 35.7635 45.1345 35.664 44.7658 35.465C44.403 35.2602 44.1191 34.9793 43.9143 34.6224C43.7095 34.2654 43.6071 33.8616 43.6071 33.411C43.6071 32.9604 43.7036 32.5566 43.8968 32.1996C44.0957 31.8427 44.3649 31.5647 44.7043 31.3657C45.0496 31.1668 45.4358 31.0673 45.863 31.0673C46.2902 31.0673 46.6735 31.1668 47.0129 31.3657C47.3524 31.5647 47.6186 31.8427 47.8117 32.1996C48.0048 32.5508 48.1014 32.9545 48.1014 33.411L48.0926 33.6041ZM45.863 31.6027C45.4183 31.6027 45.0437 31.7461 44.7394 32.0329C44.441 32.3137 44.2713 32.6824 44.2303 33.1389H47.5045C47.4635 32.6824 47.2909 32.3137 46.9866 32.0329C46.6882 31.7461 46.3136 31.6027 45.863 31.6027Z" fill="#061135"/>
<path d="M54.4851 35.7723C53.8764 35.7723 53.3234 35.6377 52.826 35.3685C52.3345 35.0934 51.9482 34.7189 51.6673 34.2449C51.3923 33.7709 51.2548 33.2384 51.2548 32.6473C51.2548 32.0563 51.3923 31.5237 51.6673 31.0497C51.9482 30.5757 52.3345 30.2041 52.826 29.9349C53.3234 29.6599 53.8764 29.5223 54.4851 29.5223C55.0937 29.5223 55.6408 29.6569 56.1265 29.9261C56.6181 30.1953 57.0043 30.5699 57.2852 31.0497C57.5661 31.5237 57.7066 32.0563 57.7066 32.6473C57.7066 33.2384 57.5661 33.7738 57.2852 34.2537C57.0043 34.7277 56.6181 35.0993 56.1265 35.3685C55.6408 35.6377 55.0937 35.7723 54.4851 35.7723ZM54.4851 35.1929C54.9708 35.1929 55.4097 35.0847 55.8018 34.8681C56.1938 34.6458 56.5011 34.3415 56.7234 33.9552C56.9458 33.5631 57.057 33.1272 57.057 32.6473C57.057 32.1674 56.9458 31.7344 56.7234 31.3482C56.5011 30.9561 56.1938 30.6518 55.8018 30.4353C55.4097 30.2129 54.9708 30.1017 54.4851 30.1017C53.9993 30.1017 53.5575 30.2129 53.1596 30.4353C52.7675 30.6518 52.4573 30.9561 52.2291 31.3482C52.0067 31.7344 51.8956 32.1674 51.8956 32.6473C51.8956 33.1272 52.0067 33.5631 52.2291 33.9552C52.4573 34.3415 52.7675 34.6458 53.1596 34.8681C53.5575 35.0847 53.9993 35.1929 54.4851 35.1929Z" fill="#061135"/>
<path d="M63.1917 31.1024V35.7196H62.5947V34.8769C62.4309 35.1578 62.2056 35.3773 61.9188 35.5353C61.6321 35.6874 61.3044 35.7635 60.9357 35.7635C60.333 35.7635 59.856 35.5967 59.5049 35.2631C59.1596 34.9237 58.987 34.4292 58.987 33.7797V31.1024H59.6102V33.7182C59.6102 34.2039 59.7302 34.5726 59.9701 34.8242C60.2101 35.0759 60.5524 35.2017 60.9972 35.2017C61.4829 35.2017 61.8662 35.0554 62.1471 34.7628C62.428 34.4644 62.5684 34.0518 62.5684 33.5251V31.1024H63.1917Z" fill="#061135"/>
<path d="M67.3687 35.4387C67.2516 35.544 67.1053 35.626 66.9298 35.6845C66.7601 35.7372 66.5816 35.7635 66.3943 35.7635C65.9613 35.7635 65.6277 35.6465 65.3936 35.4124C65.1595 35.1783 65.0425 34.8477 65.0425 34.4205V31.6291H64.2174V31.1024H65.0425V30.0929H65.6657V31.1024H67.0702V31.6291H65.6657V34.3853C65.6657 34.6604 65.733 34.8711 65.8676 35.0174C66.0081 35.1578 66.207 35.228 66.4645 35.228C66.5933 35.228 66.7162 35.2076 66.8332 35.1666C66.9561 35.1256 67.0614 35.0671 67.1492 34.991L67.3687 35.4387Z" fill="#061135"/>
<path d="M69.9106 29.6891C69.6414 29.6891 69.4366 29.7623 69.2961 29.9086C69.1615 30.0549 69.0942 30.2714 69.0942 30.5582V31.1024H70.5163V31.6291H69.1118V35.7196H68.4885V31.6291H67.6634V31.1024H68.4885V30.5318C68.4885 30.1105 68.6085 29.7769 68.8484 29.5311C69.0942 29.2853 69.4395 29.1625 69.8842 29.1625C70.0598 29.1625 70.2295 29.1888 70.3934 29.2415C70.5572 29.2883 70.6947 29.3585 70.8059 29.4521L70.5953 29.9174C70.4138 29.7652 70.1856 29.6891 69.9106 29.6891ZM72.0612 31.1024H72.6844V35.7196H72.0612V31.1024ZM72.3772 30.0929C72.2484 30.0929 72.1402 30.049 72.0524 29.9612C71.9646 29.8735 71.9207 29.7681 71.9207 29.6452C71.9207 29.5282 71.9646 29.4258 72.0524 29.338C72.1402 29.2502 72.2484 29.2063 72.3772 29.2063C72.5059 29.2063 72.6142 29.2502 72.702 29.338C72.7897 29.4199 72.8336 29.5194 72.8336 29.6365C72.8336 29.7652 72.7897 29.8735 72.702 29.9612C72.6142 30.049 72.5059 30.0929 72.3772 30.0929Z" fill="#061135"/>
<path d="M76.8581 35.4387C76.7411 35.544 76.5948 35.626 76.4192 35.6845C76.2495 35.7372 76.071 35.7635 75.8838 35.7635C75.4507 35.7635 75.1172 35.6465 74.8831 35.4124C74.649 35.1783 74.532 34.8477 74.532 34.4205V31.6291H73.7068V31.1024H74.532V30.0929H75.1552V31.1024H76.5597V31.6291H75.1552V34.3853C75.1552 34.6604 75.2225 34.8711 75.3571 35.0174C75.4976 35.1578 75.6965 35.228 75.954 35.228C76.0827 35.228 76.2056 35.2076 76.3227 35.1666C76.4456 35.1256 76.5509 35.0671 76.6387 34.991L76.8581 35.4387Z" fill="#061135"/>
<path d="M82.1773 35.7635C81.7326 35.7635 81.3317 35.664 80.9747 35.465C80.6178 35.2602 80.3369 34.9793 80.132 34.6224C79.9272 34.2654 79.8248 33.8616 79.8248 33.411C79.8248 32.9604 79.9272 32.5566 80.132 32.1996C80.3369 31.8427 80.6178 31.5647 80.9747 31.3657C81.3317 31.1668 81.7326 31.0673 82.1773 31.0673C82.6221 31.0673 83.0229 31.1668 83.3799 31.3657C83.7369 31.5647 84.0148 31.8427 84.2138 32.1996C84.4186 32.5566 84.521 32.9604 84.521 33.411C84.521 33.8616 84.4186 34.2654 84.2138 34.6224C84.0148 34.9793 83.7369 35.2602 83.3799 35.465C83.0229 35.664 82.6221 35.7635 82.1773 35.7635ZM82.1773 35.2105C82.505 35.2105 82.7976 35.1373 83.0551 34.991C83.3185 34.8389 83.5233 34.6253 83.6696 34.3502C83.8159 34.0752 83.889 33.7621 83.889 33.411C83.889 33.0599 83.8159 32.7468 83.6696 32.4718C83.5233 32.1967 83.3185 31.986 83.0551 31.8397C82.7976 31.6876 82.505 31.6115 82.1773 31.6115C81.8496 31.6115 81.5541 31.6876 81.2907 31.8397C81.0332 31.986 80.8284 32.1967 80.6763 32.4718C80.53 32.7468 80.4568 33.0599 80.4568 33.411C80.4568 33.7621 80.53 34.0752 80.6763 34.3502C80.8284 34.6253 81.0332 34.8389 81.2907 34.991C81.5541 35.1373 81.8496 35.2105 82.1773 35.2105Z" fill="#061135"/>
<path d="M87.3208 29.6891C87.0516 29.6891 86.8468 29.7623 86.7063 29.9086C86.5717 30.0549 86.5045 30.2714 86.5045 30.5582V31.1024H87.9265V31.6291H86.522V35.7196H85.8988V31.6291H85.0736V31.1024H85.8988V30.5318C85.8988 30.1105 86.0187 29.7769 86.2587 29.5311C86.5045 29.2853 86.8497 29.1625 87.2945 29.1625C87.47 29.1625 87.6397 29.1888 87.8036 29.2415C87.9674 29.2883 88.105 29.3585 88.2162 29.4521L88.0055 29.9174C87.8241 29.7652 87.5958 29.6891 87.3208 29.6891Z" fill="#061135"/>
<path d="M2.15938 40.6704H0V40.1086H4.96834V40.6704H2.80895V46.2532H2.15938V40.6704Z" fill="#061135"/>
<path d="M8.22689 41.6008C8.80623 41.6008 9.26562 41.7706 9.60503 42.11C9.9503 42.4435 10.1229 42.9322 10.1229 43.5759V46.2532H9.49969V43.6373C9.49969 43.1575 9.37973 42.7917 9.1398 42.5401C8.89987 42.2885 8.55752 42.1626 8.11277 42.1626C7.61535 42.1626 7.22035 42.3119 6.92775 42.6103C6.641 42.9029 6.49762 43.3096 6.49762 43.8305V46.2532H5.87439V39.7399H6.49762V42.4435C6.66733 42.1743 6.90141 41.9666 7.19986 41.8203C7.49831 41.674 7.84066 41.6008 8.22689 41.6008Z" fill="#061135"/>
<path d="M15.8524 44.1377H11.9901C12.0252 44.6175 12.2096 45.0067 12.5431 45.3052C12.8767 45.5978 13.298 45.7441 13.8071 45.7441C14.0939 45.7441 14.3572 45.6943 14.5972 45.5948C14.8371 45.4895 15.0448 45.3373 15.2204 45.1384L15.5715 45.5422C15.3667 45.7879 15.1092 45.9752 14.7991 46.104C14.4948 46.2327 14.1583 46.2971 13.7896 46.2971C13.3156 46.2971 12.8942 46.1976 12.5256 45.9986C12.1627 45.7938 11.8789 45.5129 11.6741 45.1559C11.4693 44.799 11.3669 44.3952 11.3669 43.9446C11.3669 43.494 11.4634 43.0902 11.6565 42.7332C11.8555 42.3762 12.1247 42.0983 12.4641 41.8993C12.8094 41.7003 13.1956 41.6008 13.6228 41.6008C14.05 41.6008 14.4333 41.7003 14.7727 41.8993C15.1121 42.0983 15.3784 42.3762 15.5715 42.7332C15.7646 43.0843 15.8612 43.4881 15.8612 43.9446L15.8524 44.1377ZM13.6228 42.1363C13.1781 42.1363 12.8035 42.2797 12.4992 42.5664C12.2008 42.8473 12.0311 43.216 11.9901 43.6725H15.2643C15.2233 43.216 15.0507 42.8473 14.7464 42.5664C14.4479 42.2797 14.0734 42.1363 13.6228 42.1363Z" fill="#061135"/>
<path d="M19.5588 40.1086H22.0605C22.7101 40.1086 23.2836 40.2403 23.781 40.5036C24.2784 40.7611 24.6646 41.1239 24.9397 41.5921C25.2147 42.0544 25.3522 42.584 25.3522 43.1809C25.3522 43.7778 25.2147 44.3103 24.9397 44.7785C24.6646 45.2408 24.2784 45.6036 23.781 45.867C23.2836 46.1244 22.7101 46.2532 22.0605 46.2532H19.5588V40.1086ZM22.0254 45.6914C22.5638 45.6914 23.0349 45.5861 23.4386 45.3754C23.8424 45.1589 24.1555 44.8633 24.3779 44.4888C24.6003 44.1084 24.7115 43.6725 24.7115 43.1809C24.7115 42.6893 24.6003 42.2563 24.3779 41.8817C24.1555 41.5014 23.8424 41.2058 23.4386 40.9952C23.0349 40.7786 22.5638 40.6704 22.0254 40.6704H20.2083V45.6914H22.0254Z" fill="#061135"/>
<path d="M28.2944 41.6008C28.8971 41.6008 29.3594 41.753 29.6813 42.0573C30.0032 42.3558 30.1641 42.8005 30.1641 43.3916V46.2532H29.5672V45.5334C29.4267 45.7733 29.219 45.9606 28.9439 46.0952C28.6748 46.2298 28.3529 46.2971 27.9784 46.2971C27.4634 46.2971 27.0538 46.1742 26.7495 45.9284C26.4452 45.6826 26.293 45.3578 26.293 44.954C26.293 44.562 26.4334 44.2459 26.7143 44.006C27.0011 43.7661 27.4546 43.6461 28.0749 43.6461H29.5408V43.3652C29.5408 42.9673 29.4297 42.6659 29.2073 42.4611C28.9849 42.2504 28.6601 42.1451 28.2329 42.1451C27.9403 42.1451 27.6594 42.1948 27.3902 42.2943C27.1211 42.3879 26.8899 42.5196 26.6968 42.6893L26.4159 42.2241C26.65 42.0251 26.9309 41.873 27.2586 41.7676C27.5863 41.6564 27.9316 41.6008 28.2944 41.6008ZM28.0749 45.8055C28.426 45.8055 28.7274 45.7265 28.9791 45.5685C29.2307 45.4046 29.418 45.1706 29.5408 44.8663V44.1114H28.0925C27.3025 44.1114 26.9075 44.3864 26.9075 44.9365C26.9075 45.2057 27.0099 45.4193 27.2147 45.5773C27.4195 45.7294 27.7063 45.8055 28.0749 45.8055Z" fill="#061135"/>
<path d="M35.651 41.636L33.3424 46.8062C33.1551 47.2392 32.9386 47.5465 32.6928 47.7279C32.447 47.9093 32.1515 48 31.8063 48C31.5839 48 31.3761 47.9649 31.183 47.8947C30.9899 47.8244 30.8231 47.7191 30.6827 47.5787L30.9723 47.1134C31.2064 47.3475 31.4873 47.4645 31.815 47.4645C32.0257 47.4645 32.2042 47.406 32.3505 47.289C32.5026 47.1719 32.6431 46.973 32.7718 46.6921L32.9737 46.2444L30.9109 41.636H31.5605L33.2985 45.5597L35.0366 41.636H35.651Z" fill="#061135"/>
<path d="M41.2576 40.1086C42.0418 40.1086 42.6562 40.2959 43.101 40.6704C43.5457 41.0449 43.7681 41.5599 43.7681 42.2153C43.7681 42.8707 43.5457 43.3857 43.101 43.7602C42.6562 44.1289 42.0418 44.3132 41.2576 44.3132H39.6073V46.2532H38.9578V40.1086H41.2576ZM41.24 43.7427C41.8487 43.7427 42.3139 43.611 42.6357 43.3477C42.9576 43.0785 43.1185 42.701 43.1185 42.2153C43.1185 41.7179 42.9576 41.3375 42.6357 41.0742C42.3139 40.805 41.8487 40.6704 41.24 40.6704H39.6073V43.7427H41.24Z" fill="#061135"/>
<path d="M45.1267 39.7399H45.7499V46.2532H45.1267V39.7399Z" fill="#061135"/>
<path d="M49.0992 41.6008C49.702 41.6008 50.1643 41.753 50.4861 42.0573C50.808 42.3558 50.9689 42.8005 50.9689 43.3916V46.2532H50.372V45.5334C50.2316 45.7733 50.0238 45.9606 49.7488 46.0952C49.4796 46.2298 49.1577 46.2971 48.7832 46.2971C48.2682 46.2971 47.8586 46.1742 47.5543 45.9284C47.25 45.6826 47.0978 45.3578 47.0978 44.954C47.0978 44.562 47.2383 44.2459 47.5192 44.006C47.8059 43.7661 48.2595 43.6461 48.8798 43.6461H50.3457V43.3652C50.3457 42.9673 50.2345 42.6659 50.0121 42.4611C49.7898 42.2504 49.465 42.1451 49.0378 42.1451C48.7452 42.1451 48.4643 42.1948 48.1951 42.2943C47.9259 42.3879 47.6947 42.5196 47.5016 42.6893L47.2207 42.2241C47.4548 42.0251 47.7357 41.873 48.0634 41.7676C48.3911 41.6564 48.7364 41.6008 49.0992 41.6008ZM48.8798 45.8055C49.2309 45.8055 49.5323 45.7265 49.7839 45.5685C50.0355 45.4046 50.2228 45.1706 50.3457 44.8663V44.1114H48.8973C48.1073 44.1114 47.7123 44.3864 47.7123 44.9365C47.7123 45.2057 47.8147 45.4193 48.0195 45.5773C48.2243 45.7294 48.5111 45.8055 48.8798 45.8055Z" fill="#061135"/>
<path d="M55.0932 45.9723C54.9762 46.0776 54.8299 46.1595 54.6543 46.2181C54.4846 46.2707 54.3061 46.2971 54.1189 46.2971C53.6858 46.2971 53.3522 46.18 53.1182 45.9459C52.8841 45.7119 52.767 45.3812 52.767 44.954V42.1626H51.9419V41.636H52.767V40.6265H53.3903V41.636H54.7948V42.1626H53.3903V44.9189C53.3903 45.194 53.4576 45.4046 53.5922 45.5509C53.7326 45.6914 53.9316 45.7616 54.1891 45.7616C54.3178 45.7616 54.4407 45.7411 54.5578 45.7002C54.6806 45.6592 54.786 45.6007 54.8738 45.5246L55.0932 45.9723Z" fill="#061135"/>
<path d="M57.7551 40.2227C57.4859 40.2227 57.2811 40.2959 57.1407 40.4422C57.0061 40.5885 56.9388 40.805 56.9388 41.0917V41.636H58.3608V42.1626H56.9563V46.2532H56.3331V42.1626H55.508V41.636H56.3331V41.0654C56.3331 40.6441 56.4531 40.3105 56.693 40.0647C56.9388 39.8189 57.284 39.696 57.7288 39.696C57.9044 39.696 58.0741 39.7224 58.2379 39.775C58.4018 39.8218 58.5393 39.8921 58.6505 39.9857L58.4398 40.4509C58.2584 40.2988 58.0302 40.2227 57.7551 40.2227Z" fill="#061135"/>
<path d="M61.0124 46.2971C60.5677 46.2971 60.1668 46.1976 59.8099 45.9986C59.4529 45.7938 59.172 45.5129 58.9672 45.1559C58.7624 44.799 58.6599 44.3952 58.6599 43.9446C58.6599 43.494 58.7624 43.0902 58.9672 42.7332C59.172 42.3762 59.4529 42.0983 59.8099 41.8993C60.1668 41.7003 60.5677 41.6008 61.0124 41.6008C61.4572 41.6008 61.8581 41.7003 62.215 41.8993C62.572 42.0983 62.85 42.3762 63.0489 42.7332C63.2538 43.0902 63.3562 43.494 63.3562 43.9446C63.3562 44.3952 63.2538 44.799 63.0489 45.1559C62.85 45.5129 62.572 45.7938 62.215 45.9986C61.8581 46.1976 61.4572 46.2971 61.0124 46.2971ZM61.0124 45.7441C61.3402 45.7441 61.6328 45.6709 61.8902 45.5246C62.1536 45.3725 62.3584 45.1589 62.5047 44.8838C62.651 44.6088 62.7242 44.2957 62.7242 43.9446C62.7242 43.5934 62.651 43.2804 62.5047 43.0053C62.3584 42.7303 62.1536 42.5196 61.8902 42.3733C61.6328 42.2212 61.3402 42.1451 61.0124 42.1451C60.6847 42.1451 60.3892 42.2212 60.1259 42.3733C59.8684 42.5196 59.6636 42.7303 59.5114 43.0053C59.3651 43.2804 59.292 43.5934 59.292 43.9446C59.292 44.2957 59.3651 44.6088 59.5114 44.8838C59.6636 45.1589 59.8684 45.3725 60.1259 45.5246C60.3892 45.6709 60.6847 45.7441 61.0124 45.7441Z" fill="#061135"/>
<path d="M65.2255 42.5401C65.3718 42.2299 65.5883 41.9959 65.875 41.8379C66.1676 41.6799 66.5275 41.6008 66.9547 41.6008V42.2065L66.8055 42.1978C66.3198 42.1978 65.9394 42.347 65.6644 42.6454C65.3893 42.9439 65.2518 43.3623 65.2518 43.9007V46.2532H64.6286V41.636H65.2255V42.5401Z" fill="#061135"/>
<path d="M73.8415 41.6008C74.4209 41.6008 74.8744 41.7676 75.2021 42.1012C75.5357 42.4348 75.7025 42.9263 75.7025 43.5759V46.2532H75.0792V43.6373C75.0792 43.1575 74.9622 42.7917 74.7281 42.5401C74.4999 42.2885 74.1751 42.1626 73.7538 42.1626C73.2739 42.1626 72.8964 42.3119 72.6214 42.6103C72.3464 42.9029 72.2088 43.3096 72.2088 43.8305V46.2532H71.5856V43.6373C71.5856 43.1575 71.4686 42.7917 71.2345 42.5401C71.0062 42.2885 70.6785 42.1626 70.2513 42.1626C69.7773 42.1626 69.3999 42.3119 69.119 42.6103C68.8439 42.9029 68.7064 43.3096 68.7064 43.8305V46.2532H68.0832V41.636H68.6801V42.4786C68.8439 42.1978 69.0722 41.9812 69.3648 41.8291C69.6574 41.6769 69.9939 41.6008 70.3742 41.6008C70.7605 41.6008 71.094 41.6828 71.3749 41.8466C71.6617 42.0105 71.8753 42.2533 72.0157 42.5752C72.1854 42.2709 72.4283 42.0339 72.7443 41.8642C73.0661 41.6886 73.4319 41.6008 73.8415 41.6008Z" fill="#061135"/>
</svg>
